<svg viewBox="0 0 400 400" xmlns="http://www.w3.org/2000/svg">
  <rect width="400" height="400" fill="#F0EDE2"/>
  <path d="M180,25 C250,25 320,65 350,135 C380,205 370,275 320,325 C270,375 200,385 140,355 C80,325 40,275 25,215 C10,155 25,95 75,55 C125,15 155,25 180,25Z" fill="#B9D48B" opacity="0.25"/>
  <path d="M195,45 C255,45 310,80 335,140 C360,200 350,260 305,310 C260,360 200,375 145,350 C90,325 55,280 45,225 C35,170 50,120 95,80 C140,40 165,45 195,45Z" fill="#B9D48B" opacity="0.1"/>
  <g transform="translate(130,70)">
    <path d="M70,115 C70,115 105,75 105,52 C105,33 89,18 70,18 C51,18 35,33 35,52 C35,75 70,115 70,115Z" fill="#B9D48B" opacity="0.18"/>
    <path d="M70,103 C70,103 94,73 94,55 C94,41 83,28 70,28 C57,28 46,41 46,55 C46,73 70,103 70,103Z" fill="#B9D48B" opacity="0.1"/>
    <circle cx="100" cy="50" r="6" fill="#B9D48B" opacity="0.2"/>
    <circle cx="100" cy="50" r="3" fill="#B9D48B" opacity="0.35"/>
    <circle cx="40" cy="45" r="5" fill="#B9D48B" opacity="0.15"/>
    <circle cx="40" cy="45" r="2.5" fill="#B9D48B" opacity="0.3"/>
  </g>
  <path d="M0,350 Q100,320 200,350 Q300,380 400,350 L400,400 L0,400Z" fill="#B9D48B" opacity="0.12"/>
</svg>