<svg viewBox="0 0 400 400" xmlns="http://www.w3.org/2000/svg">
  <rect width="400" height="400" fill="#F0EDE2"/>
  <path d="M200,30 C270,30 340,70 360,140 C380,210 360,280 310,330 C260,380 190,390 130,360 C70,330 30,280 20,220 C10,160 30,100 80,60 C130,20 170,30 200,30Z" fill="#B9D48B" opacity="0.25"/>
  <path d="M190,50 C250,50 310,85 330,145 C350,205 335,265 295,310 C255,355 195,370 140,345 C85,320 50,275 45,220 C40,165 55,115 100,75 C145,35 165,50 190,50Z" fill="#B9D48B" opacity="0.15"/>
  <g transform="translate(120,80)">
    <polygon points="80,10 98,40 130,45 107,70 112,105 80,90 48,105 53,70 30,45 62,40" fill="#B9D48B" opacity="0.45"/>
    <polygon points="80,28 90,44 107,47 95,60 97,78 80,69 63,78 65,60 53,47 70,44" fill="#B9D48B" opacity="0.25"/>
    <circle cx="80" cy="60" r="12" fill="#B9D48B" opacity="0.12"/>
    <circle cx="80" cy="60" r="5" fill="#B9D48B" opacity="0.18"/>
  </g>
  <path d="M0,350 Q100,320 200,350 Q300,380 400,350 L400,400 L0,400Z" fill="#B9D48B" opacity="0.12"/>
</svg>